<?xml version="1.0" encoding="UTF-8"?>
<svg width="183px" height="54px" viewBox="0 0 183 54" version="1.1" xmlns="http://www.w3.org/2000/svg" xmlns:xlink="http://www.w3.org/1999/xlink">
    <!-- Generator: Sketch 61.1 (89650) - https://sketch.com -->
    <title>Group 3</title>
    <desc>Created with Sketch.</desc>
    <g id="Page-1" stroke="none" stroke-width="1" fill="none" fill-rule="evenodd">
        <g id="Group-3">
            <rect id="Rectangle" stroke-opacity="0" stroke="#AFB1B5" fill="#FFFFFF" x="0.5" y="0.5" width="182" height="53" rx="3"></rect>
            <g id="logo-01" transform="translate(13.000000, 10.000000)" fill-rule="nonzero">
                <ellipse id="Oval" fill="#B7E2CB" cx="18.043" cy="17.777" rx="17.458" ry="17.239"></ellipse>
                <g id="Group" transform="translate(44.000000, 3.000000)" fill="#000000">
                    <path d="M16.296,15.255 C17.027,16.171 17.392,17.233 17.392,18.441 C17.392,20.214 16.804,21.598 15.625,22.591 C14.445,23.585 12.752,24.082 10.553,24.082 L0.936,24.082 L0.936,3.417 L10.317,3.417 C12.422,3.417 14.047,3.875 15.197,4.791 C16.347,5.708 16.922,7.013 16.922,8.708 C16.922,9.956 16.59,10.994 15.928,11.822 C15.267,12.651 14.398,13.191 13.326,13.443 C14.577,13.734 15.565,14.338 16.296,15.255 Z M5.934,11.864 L9.208,11.864 C10.943,11.864 11.81,11.124 11.81,9.643 C11.81,8.162 10.922,7.421 9.151,7.421 L5.934,7.421 L5.934,11.864 Z M12.276,17.739 C12.276,16.998 12.034,16.419 11.548,16 C11.059,15.582 10.368,15.371 9.47,15.371 L5.933,15.371 L5.933,20.019 L9.501,20.019 C11.353,20.019 12.276,19.259 12.276,17.739 Z" id="Shape"></path>
                    <path d="M28.442,8.415 C29.338,8.98 30.002,9.749 30.429,10.723 L30.429,7.771 L35.398,7.771 L35.398,24.082 L30.429,24.082 L30.429,21.13 C30.002,22.104 29.338,22.874 28.442,23.438 C27.546,24.004 26.473,24.287 25.226,24.287 C23.883,24.287 22.678,23.951 21.617,23.278 C20.556,22.607 19.718,21.636 19.104,20.371 C18.49,19.103 18.183,17.623 18.183,15.927 C18.183,14.214 18.491,12.727 19.104,11.471 C19.717,10.214 20.556,9.249 21.617,8.576 C22.678,7.903 23.883,7.568 25.226,7.568 C26.473,7.568 27.546,7.849 28.442,8.415 Z M24.25,13.004 C23.593,13.706 23.27,14.68 23.27,15.926 C23.27,17.174 23.593,18.149 24.25,18.85 C24.898,19.551 25.763,19.9 26.833,19.9 C27.885,19.9 28.748,19.541 29.422,18.82 C30.094,18.099 30.429,17.134 30.429,15.925 C30.429,14.698 30.095,13.728 29.422,13.016 C28.748,12.306 27.885,11.95 26.833,11.95 C25.762,11.952 24.898,12.301 24.25,13.004 Z" id="Shape"></path>
                    <polygon id="Path" points="41.625 7.771 45.54 17.769 49.194 7.771 54.719 7.771 44.546 31.857 39.051 31.857 42.88 23.467 36.042 7.771"></polygon>
                    <polygon id="Path" points="78.629 3.564 78.629 24.082 73.631 24.082 73.631 11.249 69.187 24.082 64.862 24.082 60.388 11.222 60.388 24.082 55.392 24.082 55.392 3.564 61.499 3.564 67.082 17.856 72.549 3.564"></polygon>
                    <path d="M90.498,8.415 C91.393,8.98 92.055,9.749 92.485,10.723 L92.485,7.771 L97.454,7.771 L97.454,24.082 L92.485,24.082 L92.485,21.13 C92.054,22.104 91.392,22.874 90.498,23.438 C89.601,24.004 88.528,24.287 87.28,24.287 C85.935,24.287 84.732,23.951 83.67,23.278 C82.61,22.607 81.771,21.636 81.158,20.371 C80.543,19.103 80.237,17.623 80.237,15.927 C80.237,14.214 80.543,12.727 81.158,11.471 C81.77,10.214 82.61,9.249 83.67,8.576 C84.733,7.903 85.936,7.568 87.28,7.568 C88.528,7.568 89.6,7.849 90.498,8.415 Z M86.301,13.004 C85.65,13.706 85.323,14.68 85.323,15.926 C85.323,17.174 85.649,18.149 86.301,18.85 C86.953,19.551 87.818,19.9 88.89,19.9 C89.943,19.9 90.8,19.541 91.476,18.82 C92.148,18.099 92.485,17.134 92.485,15.925 C92.485,14.698 92.148,13.728 91.476,13.016 C90.8,12.306 89.943,11.95 88.89,11.95 C87.818,11.952 86.954,12.301 86.301,13.004 Z" id="Shape"></path>
                    <path d="M100.257,1.297 C100.802,0.801 101.525,0.551 102.422,0.551 C103.317,0.551 104.039,0.801 104.584,1.297 C105.128,1.796 105.404,2.423 105.404,3.182 C105.404,3.923 105.128,4.542 104.584,5.038 C104.039,5.535 103.316,5.784 102.422,5.784 C101.525,5.784 100.802,5.535 100.257,5.038 C99.712,4.541 99.44,3.923 99.44,3.182 C99.44,2.423 99.712,1.795 100.257,1.297 Z M104.907,7.771 L104.907,24.082 L99.908,24.082 L99.908,7.771 L104.907,7.771 Z" id="Shape"></path>
                    <polygon id="Path" points="112.36 2.453 112.36 24.082 107.361 24.082 107.361 2.453"></polygon>
                </g>
                <g id="Group" transform="translate(7.000000, 11.000000)" fill="#27AE60">
                    <path d="M1.787,0.059 C1.457,0.059 1.254,0.087 1.172,0.142 C1.091,0.197 1.074,0.258 1.131,0.326 C1.187,0.395 1.319,0.511 1.541,0.676 C1.648,0.757 1.733,0.825 1.787,0.879 L11.042,7.925 L20.299,0.922 L20.506,0.717 C20.723,0.553 20.866,0.436 20.935,0.369 C21.002,0.301 20.997,0.233 20.913,0.164 C20.832,0.096 20.629,0.06 20.299,0.06 L10.428,0.06 L1.787,0.06 L1.787,0.059 Z" id="Path"></path>
                    <path d="M0.558,1.698 L0.558,12.102 C0.558,12.402 0.681,12.709 0.926,13.023 C1.172,13.337 1.419,13.496 1.664,13.496 L20.422,13.496 C20.667,13.496 20.913,13.338 21.158,13.023 C21.407,12.71 21.53,12.402 21.53,12.102 L21.53,1.698 L11.042,9.725 L0.558,1.698 Z" id="Path"></path>
                </g>
            </g>
        </g>
    </g>
</svg>