<?xml version="1.0" encoding="utf-8"?>
<!-- Generator: Adobe Illustrator 16.0.0, SVG Export Plug-In . SVG Version: 6.00 Build 0)  -->
<!DOCTYPE svg PUBLIC "-//W3C//DTD SVG 1.1//EN" "http://www.w3.org/Graphics/SVG/1.1/DTD/svg11.dtd">
<svg version="1.1" id="Layer_1" xmlns="http://www.w3.org/2000/svg" xmlns:xlink="http://www.w3.org/1999/xlink" x="0px" y="0px"
	 width="32px" height="32px" viewBox="80 80 32 32" enable-background="new 80 80 32 32" xml:space="preserve">
<path id="Oval" fill="#B7E2CB" d="M96.089,80.588c8.56,0,15.499,6.924,15.499,15.467c0,8.541-6.938,15.468-15.499,15.468
	c-8.559,0-15.498-6.927-15.498-15.468C80.591,87.512,87.53,80.588,96.089,80.588z"/>
<g id="Group_1_" transform="translate(7.000000, 11.000000)">
	<path id="Path_3_" fill="#27AE60" d="M80.873,79.027c-0.292,0-0.473,0.025-0.546,0.073c-0.071,0.049-0.087,0.105-0.037,0.166
		c0.05,0.063,0.167,0.167,0.364,0.315c0.095,0.072,0.17,0.133,0.219,0.182l8.215,6.321l8.217-6.282l0.185-0.185
		c0.192-0.146,0.321-0.251,0.381-0.312c0.06-0.061,0.057-0.122-0.019-0.185c-0.072-0.06-0.253-0.094-0.547-0.094h-8.76H80.873
		L80.873,79.027z"/>
	<path id="Path_4_" fill="#27AE60" d="M79.782,80.498v9.332c0,0.271,0.11,0.547,0.326,0.828c0.218,0.282,0.438,0.424,0.655,0.424
		h16.652c0.219,0,0.437-0.142,0.655-0.424c0.221-0.282,0.328-0.557,0.328-0.828v-9.332l-9.31,7.201L79.782,80.498z"/>
</g>
</svg>
