<?xml version="1.0" encoding="utf-8"?>
<!-- Generator: Adobe Illustrator 16.0.0, SVG Export Plug-In . SVG Version: 6.00 Build 0)  -->
<!DOCTYPE svg PUBLIC "-//W3C//DTD SVG 1.1//EN" "http://www.w3.org/Graphics/SVG/1.1/DTD/svg11.dtd">
<svg version="1.1" id="Layer_1" xmlns="http://www.w3.org/2000/svg" xmlns:xlink="http://www.w3.org/1999/xlink" x="0px" y="0px"
	 width="192px" height="192px" viewBox="0 0 192 192" enable-background="new 0 0 192 192" xml:space="preserve">
<path id="Oval" fill="#B7E2CB" d="M96.089,1.336C148.506,1.336,191,43.742,191,96.054c0,52.306-42.494,94.72-94.911,94.72
	c-52.417,0-94.91-42.414-94.91-94.72C1.179,43.742,43.671,1.336,96.089,1.336z"/>
<g id="Group_1_" transform="translate(7.000000, 11.000000)">
	<path id="Path_3_" fill="#27AE60" d="M38.77,48.143c-1.792,0-2.899,0.152-3.345,0.451c-0.441,0.301-0.535,0.641-0.226,1.013
		c0.304,0.383,1.023,1.019,2.227,1.925c0.581,0.442,1.043,0.817,1.338,1.116l50.314,38.71L139.4,52.887l1.128-1.129
		c1.183-0.894,1.967-1.539,2.332-1.911c0.366-0.372,0.345-0.744-0.118-1.13c-0.439-0.367-1.547-0.573-3.342-0.573H85.752H38.77
		L38.77,48.143z"/>
	<path id="Path_4_" fill="#27AE60" d="M32.091,57.148V114.3c0,1.663,0.672,3.346,1.996,5.073c1.338,1.727,2.682,2.596,4.012,2.596
		h101.979c1.333,0,2.665-0.869,4.009-2.596c1.354-1.728,2.011-3.41,2.011-5.073V57.148l-57.013,44.1L32.091,57.148z"/>
</g>
</svg>
