<?xml version="1.0" encoding="utf-8"?>
<!-- Generator: Adobe Illustrator 16.0.0, SVG Export Plug-In . SVG Version: 6.00 Build 0)  -->
<!DOCTYPE svg PUBLIC "-//W3C//DTD SVG 1.1//EN" "http://www.w3.org/Graphics/SVG/1.1/DTD/svg11.dtd">
<svg version="1.1" id="Layer_1" xmlns="http://www.w3.org/2000/svg" xmlns:xlink="http://www.w3.org/1999/xlink" x="0px" y="0px"
	 width="512px" height="512px" viewBox="0 0 512 512" enable-background="new 0 0 512 512" xml:space="preserve">
<path id="Oval" fill="#B7E2CB" d="M256.491,4.301c139.024,0,251.729,112.472,251.729,251.216
	c0,138.728-112.705,251.22-251.729,251.22c-139.025,0-251.725-112.492-251.725-251.22C4.766,116.773,117.466,4.301,256.491,4.301z"
	/>
<g id="Group_1_" transform="translate(7.000000, 11.000000)">
	<path id="Path_3_" fill="#27AE60" d="M116.032,146.62c-4.752,0-7.688,0.404-8.871,1.196c-1.169,0.798-1.418,1.702-0.599,2.688
		c0.806,1.016,2.715,2.699,5.907,5.105c1.54,1.173,2.766,2.167,3.548,2.96l133.447,102.669L382.93,159.202l2.991-2.994
		c3.137-2.373,5.218-4.082,6.185-5.071c0.972-0.984,0.916-1.973-0.313-2.994c-1.166-0.974-4.104-1.523-8.863-1.523H240.64H116.032
		L116.032,146.62z"/>
	<path id="Path_4_" fill="#27AE60" d="M98.317,170.506v151.581c0,4.408,1.784,8.874,5.294,13.452
		c3.55,4.58,7.112,6.885,10.641,6.885h270.473c3.535,0,7.068-2.305,10.633-6.885c3.593-4.578,5.333-9.044,5.333-13.452V170.506
		L249.478,287.468L98.317,170.506z"/>
</g>
</svg>
