<?xml version="1.0" encoding="UTF-8"?>
<svg width="61px" height="59px" viewBox="0 0 61 59" version="1.1" xmlns="http://www.w3.org/2000/svg" xmlns:xlink="http://www.w3.org/1999/xlink">
    <!-- Generator: Sketch 61.1 (89650) - https://sketch.com -->
    <title>automated</title>
    <desc>Created with Sketch.</desc>
    <g id="Page-1" stroke="none" stroke-width="1" fill="none" fill-rule="evenodd">
        <g id="step-1-copy" transform="translate(-352.000000, -633.000000)">
            <rect fill="#F4F6F8" x="0" y="0" width="1337" height="972"></rect>
            <rect id="Rectangle" stroke="#D8D8D8" fill="#FFFFFF" x="293.5" y="163.5" width="996" height="609" rx="5"></rect>
            <rect id="Rectangle" stroke="#D8D8D8" fill="#FFFFFF" x="326.5" y="604.5" width="291" height="140" rx="3"></rect>
            <g id="automated" transform="translate(382.500000, 662.500000) scale(-1, 1) translate(-382.500000, -662.500000) translate(352.000000, 633.000000)" fill-rule="nonzero">
                <rect id="Rectangle" fill="#9DABED" x="24" y="2" width="13" height="13"></rect>
                <rect id="Rectangle" fill="#9DABED" x="24" y="23" width="13" height="13"></rect>
                <rect id="Rectangle" fill="#9DABED" x="24" y="44" width="13" height="13"></rect>
                <path d="M48.4902298,7.02929545 L39.4354879,7.02929545 L39.4354879,0 L21.564367,0 L21.564367,7.9264789 L15.6795754,2.23495324 L13.1524649,4.67906491 L15.581793,7.0291499 L1.78706857,7.0291499 L1.78706857,10.486159 L15.4123421,10.486159 L13.1383923,12.7346486 L15.6933578,15.1518331 L21.564367,9.34735897 L21.564367,17.4003227 L39.4354879,17.4003227 L39.4354879,10.4863045 L48.4902298,10.4863045 C53.4173627,10.4863045 57.4257178,14.3633771 57.4257178,19.1289 C57.4257178,23.8945684 53.4173627,27.7714955 48.4902298,27.7714955 L45.5373159,27.7714955 L47.8475351,25.5365422 L45.3204246,23.092285 L39.435633,28.7838107 L39.435633,20.8574773 L21.5645121,20.8574773 L21.5645121,27.7714955 L12.6290241,27.7714955 C5.66528882,27.7714955 0,33.1992806 0,39.8711 C0,46.5432105 5.66528882,51.9707045 12.6290241,51.9707045 L15.4626841,51.9707045 L13.1524649,54.2056578 L15.6795754,56.649915 L21.564367,50.9585349 L21.564367,59 L39.4354879,59 L39.4354879,41.5998229 L21.564367,41.5998229 L21.564367,49.5261562 L15.6795754,43.834485 L13.1524649,46.2787422 L15.4626841,48.5136955 L12.6290241,48.5136955 C7.63617099,48.5136955 3.57428222,44.6366229 3.57428222,39.8709545 C3.57428222,35.1055771 7.63617099,31.2285045 12.6290241,31.2285045 L21.5645121,31.2285045 L21.5645121,38.1425227 L39.435633,38.1425227 L39.435633,30.2161893 L45.3204246,35.9078606 L47.8475351,33.4636033 L45.5373159,31.2286501 L48.4902298,31.2286501 C55.3882449,31.2286501 61,25.8007194 61,19.1289 C61,12.4570806 55.3882449,7.02929545 48.4902298,7.02929545 Z M35.8612057,13.9433136 L25.1386492,13.9433136 L25.1386492,3.45700908 L35.8612057,3.45700908 L35.8612057,13.9433136 Z M25.1386492,45.0566864 L35.8612057,45.0566864 L35.8612057,55.543282 L25.1386492,55.543282 L25.1386492,45.0566864 Z M35.8612057,34.6855136 L25.1386492,34.6855136 L25.1386492,24.3146319 L35.8612057,24.3146319 L35.8612057,34.6855136 Z" id="Shape" fill="#3B50B2"></path>
            </g>
        </g>
    </g>
</svg>