<?xml version="1.0" encoding="UTF-8"?>
<svg width="71px" height="48px" viewBox="0 0 71 48" version="1.1" xmlns="http://www.w3.org/2000/svg" xmlns:xlink="http://www.w3.org/1999/xlink">
    <!-- Generator: Sketch 61.1 (89650) - https://sketch.com -->
    <title>auto-responder</title>
    <desc>Created with Sketch.</desc>
    <g id="Page-1" stroke="none" stroke-width="1" fill="none" fill-rule="evenodd">
        <g id="step-1-copy" transform="translate(-663.000000, -636.000000)">
            <rect fill="#F4F6F8" x="0" y="0" width="1337" height="972"></rect>
            <rect id="Rectangle" stroke="#D8D8D8" fill="#FFFFFF" x="293.5" y="163.5" width="996" height="609" rx="5"></rect>
            <rect id="Rectangle" stroke="#D8D8D8" fill="#FFFFFF" x="644.5" y="604.5" width="291" height="140" rx="3"></rect>
            <g id="auto-responder" transform="translate(663.000000, 636.000000)" fill-rule="nonzero">
                <path d="M64.916698,0 L10.694434,0 C9.67769846,0 9,0.692358864 9,1.73076923 C9,2.7691796 9.67769846,3.46166639 10.694434,3.46166639 L64.916698,3.46166639 C65.9334335,3.46166639 66.611132,4.15402526 66.611132,5.19243562 L66.611132,39.8079482 C66.611132,40.8463585 65.933183,41.5387174 64.916698,41.5387174 L10.694434,41.5387174 C9.67769846,41.5387174 9,42.2310763 9,43.2694866 C9,44.307897 9.6778237,45 10.694434,45 L64.916698,45 C67.7973235,45 70,42.7499616 70,39.8078202 L70,5.19230769 C70,2.25003838 67.7973235,0 64.916698,0 Z" id="Path" fill="#3B50B2"></path>
                <path d="M0,5.19242086 L0,39.807835 C0,42.749968 2.20267654,45 5.08330202,45 L59.305566,45 C60.3221763,45 61,44.307899 61,43.2694915 C61,42.2310841 60.3223015,41.5387272 59.305566,41.5387272 L5.08330202,41.5387272 C4.06681696,41.5387272 3.38886801,40.8463703 3.38886801,39.8079629 L3.38886801,5.19242086 C3.38886801,4.15401345 4.06656647,3.46165655 5.08330202,3.46165655 L59.305566,3.46165655 C60.3223015,3.46165655 61,2.76917172 61,1.73076431 C61,0.692356896 60.3223015,0 59.305566,0 L5.08330202,0 C2.20267654,0 0,2.25028784 0,5.19242086 Z" id="Path" fill="#3B50B2"></path>
                <path d="M57.7018061,11.7051183 C57.1889363,11.0081262 55.9924929,10.8338782 55.3086666,11.3566222 L37.1885316,25.4698094 C35.3081355,26.8636646 32.743913,26.8636646 30.8635169,25.4698094 L12.7432556,11.356751 C12.0594292,10.834007 10.8628594,10.834007 10.350116,11.705247 C9.83711989,12.4022391 9.83711989,13.6218463 10.6919028,14.1444616 L28.9829944,28.2576487 C30.5216037,29.4773848 32.4019998,30 34.1114394,30 C35.8207525,30 37.8722316,29.477256 39.239758,28.2576487 L57.3600193,14.1444616 C58.0438456,13.6217176 58.2145495,12.4021103 57.7018061,11.7051183 Z" id="Path" fill="#9DABED"></path>
                <g id="Group" transform="translate(54.000000, 31.000000)">
                    <ellipse id="Oval" fill="#FFFFFF" cx="8.45155639" cy="8.51219847" rx="7.46593985" ry="7.5108855"></ellipse>
                    <path d="M8.45155639,16.9963664 C3.80621053,16.9963664 0.0269699248,13.1904427 0.0269699248,8.51219847 C0.0269699248,3.83408397 3.80621053,0.0281603053 8.45155639,0.0281603053 C13.0969023,0.0281603053 16.8761429,3.83408397 16.8761429,8.51219847 C16.8761429,13.1904427 13.0969023,16.9963664 8.45155639,16.9963664 Z M8.45155639,1.97472519 C4.86340602,1.97472519 1.94426316,4.90741985 1.94426316,8.51219847 C1.94426316,12.1169771 4.86340602,15.0498015 8.45155639,15.0498015 C12.0397068,15.0498015 14.9588496,12.1169771 14.9588496,8.51219847 C14.9588496,4.90741985 12.0398346,1.97472519 8.45155639,1.97472519 Z" id="Shape" fill="#9DABED"></path>
                </g>
                <g id="Group" transform="translate(58.000000, 35.000000)" fill="#9DABED">
                    <path d="M6.41233871,0.3065 C6.26466129,0.3065 6.14498387,0.439 6.14498387,0.6025 L6.14498387,1.68325 C4.76891935,0.208375 2.57351613,0.24775 1.24137097,1.771125 C0.613403226,2.489125 0.263290323,3.449875 0.265089818,4.449125 C0.265089818,4.61275 0.384774194,4.745 0.53233871,4.745 C0.679903226,4.745 0.799580645,4.612625 0.799580645,4.449125 C0.799919355,2.6515 2.11637097,1.1945 3.74014516,1.19475 C4.56479032,1.195 5.3513871,1.5785 5.90822581,2.252125 L4.72420968,2.689125 C4.58398387,2.74075 4.5081129,2.9085 4.55474194,3.063625 C4.60137097,3.218875 4.7528871,3.302875 4.8931129,3.251375 L6.49679032,2.659625 C6.60619355,2.619125 6.67991935,2.505625 6.67958181,2.377875 L6.67958181,0.6025 C6.67958181,0.439 6.55990323,0.3065 6.41233871,0.3065 Z" id="Path"></path>
                    <path d="M0.53233871,4.995125 C0.260467742,4.995125 0.0392828787,4.75025 0.0392828787,4.44925 C0.0373709677,3.37925 0.406677419,2.366375 1.07924194,1.597375 C1.78116129,0.794625 2.72367742,0.3525 3.73325806,0.3525 C4.52843548,0.3525 5.2885,0.630875 5.91917742,1.145125 L5.91917742,0.602625 C5.91917742,0.301625 6.14046774,0.056625 6.41233871,0.056625 C6.68420968,0.056625 6.90538963,0.301625 6.90538963,0.602625 L6.90538963,2.378 C6.90606452,2.613125 6.77058065,2.822 6.56848387,2.89675 L4.96458065,3.488625 C4.9138871,3.507125 4.8616129,3.516625 4.80877419,3.516625 C4.59583871,3.516625 4.40762903,3.366375 4.34056452,3.142625 C4.29890323,3.004375 4.3085,2.85625 4.36754839,2.72575 C4.42648387,2.59525 4.52798387,2.498125 4.65296774,2.452125 L5.48190323,2.146125 C4.99675806,1.697 4.37895161,1.44525 3.74003226,1.445 C2.24327419,1.445 1.02572581,2.79275 1.0253871,4.449375 C1.0253871,4.75025 0.804209677,4.995125 0.53233871,4.995125 Z M3.73325806,0.852375 C2.84708065,0.852375 2.01983871,1.240375 1.4036129,1.945125 C0.813354839,2.62 0.489209677,3.509125 0.490896623,4.448625 C0.490896623,4.474375 0.509532258,4.495 0.53233871,4.495 C0.555145161,4.495 0.573774194,4.474375 0.573774194,4.449125 C0.574112903,2.51675 1.99432258,0.94475 3.73969355,0.94475 C4.62598387,0.945 5.47693548,1.36 6.07487097,2.08325 L6.30970968,2.367375 L4.79567742,2.92625 C4.78190323,2.93125 4.77479032,2.941625 4.77129032,2.9495 C4.76779032,2.957375 4.76440323,2.96975 4.76891935,2.984625 C4.7773871,3.01325 4.80256452,3.021625 4.82198387,3.014 L6.42532258,2.422375 C6.44225806,2.416125 6.45377419,2.3985 6.45377419,2.3785 L6.45377419,0.6025 C6.45377419,0.577125 6.43514516,0.5565 6.41233871,0.5565 C6.38941935,0.5565 6.37079032,0.577125 6.37079032,0.6025 L6.37079032,2.27325 L5.98782258,1.862875 C5.37995161,1.21125 4.57924194,0.852375 3.73325806,0.852375 Z" id="Shape"></path>
                </g>
                <g id="Group" transform="translate(60.000000, 40.000000)" fill="#9DABED">
                    <path d="M6.48704918,0.278375 C6.33695082,0.278375 6.21542623,0.411 6.21542623,0.57425 C6.21496721,2.372125 4.87693443,3.829125 3.22654098,3.828625 C2.38837705,3.828375 1.58888525,3.444875 1.02303279,2.7715 L2.22634426,2.3345 C2.36886885,2.28275 2.44598361,2.115 2.39859016,1.95975 C2.35119672,1.8045 2.19719672,1.7205 2.05467213,1.77225 L0.424819672,2.364 C0.313508197,2.40425 0.23857377,2.51775 0.238916852,2.64575 L0.238916852,4.421125 C0.238916852,4.5845 0.360672131,4.717 0.510655738,4.717 C0.660639344,4.717 0.782278689,4.584375 0.782278689,4.421125 L0.782278689,3.340125 C2.18090164,4.81525 4.41229508,4.775625 5.76627869,3.25225 C6.40442623,2.5345 6.76039344,1.5735 6.75856444,0.57425 C6.75867213,0.410875 6.63691803,0.278375 6.48704918,0.278375 Z" id="Path"></path>
                    <path d="M0.510540984,4.967 C0.234213115,4.967 0.00929251601,4.722125 0.00929251601,4.421125 L0.00929251601,2.64575 C0.00860655738,2.410125 0.146540984,2.20125 0.352295082,2.126875 L1.98191803,1.535125 C2.03332787,1.5165 2.08668852,1.507 2.14062295,1.507 C2.35681967,1.507 2.548,1.65725 2.61627869,1.880875 C2.70360656,2.1665 2.56119672,2.4765 2.29886885,2.571625 L1.45622951,2.877625 C1.94932787,3.326625 2.5772623,3.57825 3.22654098,3.5785 C4.74795082,3.5785 5.98534426,2.23075 5.98580328,0.574 C5.98580328,0.273125 6.21060656,0.02825 6.48693443,0.02825 C6.6207377,0.02825 6.74662295,0.085 6.84129508,0.188125 C6.93596721,0.291375 6.98806557,0.4285 6.98795839,0.574375 C6.98990164,1.64425 6.61454098,2.657125 5.93095082,3.426 C5.21740984,4.228875 4.25955738,4.671 3.23365574,4.671 C3.23354098,4.671 3.23342623,4.671 3.23331148,4.671 C2.42498361,4.670875 1.65257377,4.3925 1.01167213,3.87825 L1.01167213,4.421 C1.01178689,4.722125 0.786983607,4.967 0.510540984,4.967 Z M2.1407377,2.007 C2.13614754,2.007 2.13178689,2.00775 2.12731148,2.0095 L0.497459016,2.60125 C0.480016393,2.607625 0.46842623,2.625125 0.46842623,2.645125 L0.46842623,4.42125 C0.46842623,4.4465 0.487360656,4.467125 0.510655738,4.467125 C0.533836066,4.467125 0.552770492,4.4465 0.552770492,4.42125 L0.552770492,2.75 L0.942016393,3.1605 C1.55985246,3.812125 2.37368852,4.171 3.23354098,4.171125 C3.23365574,4.171125 3.23388525,4.171125 3.23388525,4.171125 C4.13436066,4.171125 4.97504918,3.783125 5.6014918,3.07825 C6.20142623,2.4035 6.53088525,1.51425 6.52917065,0.57475 C6.52917065,0.5585 6.52239344,0.547875 6.51688525,0.54175 C6.51137705,0.535625 6.5015082,0.528375 6.48716393,0.528375 C6.46398361,0.528375 6.44504918,0.549 6.44504918,0.57425 C6.44459016,2.506625 5.00121311,4.078625 3.22745902,4.078625 C2.32629508,4.078375 1.4615082,3.6635 0.853770492,2.940375 L0.615081967,2.65625 L2.15381967,2.097375 C2.17608197,2.089375 2.18836066,2.063 2.18090164,2.038625 C2.17413115,2.01675 2.15577049,2.007 2.1407377,2.007 Z" id="Shape"></path>
                </g>
            </g>
        </g>
    </g>
</svg>