<?xml version="1.0" encoding="utf-8"?>
<!-- Generator: Adobe Illustrator 16.0.0, SVG Export Plug-In . SVG Version: 6.00 Build 0)  -->
<!DOCTYPE svg PUBLIC "-//W3C//DTD SVG 1.1//EN" "http://www.w3.org/Graphics/SVG/1.1/DTD/svg11.dtd">
<svg version="1.1" id="Layer_1" xmlns="http://www.w3.org/2000/svg" xmlns:xlink="http://www.w3.org/1999/xlink" x="0px" y="0px"
	 width="400px" height="150px" viewBox="0 0 400 150" enable-background="new 0 0 400 150" xml:space="preserve">
<ellipse fill="#27AE60" cx="65.899" cy="75" rx="38.712" ry="38.229"/>
<text transform="matrix(1 0 0 1 121.1797 95.6328)" font-family="'Poppins-Bold'" fill="#FFFFFF" font-size="64.8186" letter-spacing="-2">BayMail</text>
<g>
	<g>
		<g>
			<path fill="#FFFFFF" d="M46.73,60.103c-0.728,0-1.181,0.061-1.363,0.182c-0.182,0.122-0.212,0.258-0.091,0.409
				c0.122,0.151,0.424,0.409,0.909,0.772c0.241,0.182,0.424,0.333,0.545,0.454l20.527,15.623l20.527-15.532l0.455-0.454
				c0.484-0.363,0.802-0.621,0.953-0.772c0.152-0.151,0.136-0.303-0.045-0.454s-0.635-0.228-1.362-0.228h-21.89H46.73z"/>
			<path fill="#FFFFFF" d="M44.005,63.736v23.071c0,0.666,0.273,1.347,0.818,2.044c0.544,0.696,1.089,1.045,1.634,1.045h41.6
				c0.545,0,1.089-0.349,1.634-1.045c0.546-0.697,0.818-1.378,0.818-2.044V63.736L67.257,81.539L44.005,63.736z"/>
		</g>
	</g>
</g>
</svg>
