<?xml version="1.0" encoding="utf-8"?>
<!-- Generator: Adobe Illustrator 16.0.0, SVG Export Plug-In . SVG Version: 6.00 Build 0)  -->
<!DOCTYPE svg PUBLIC "-//W3C//DTD SVG 1.1//EN" "http://www.w3.org/Graphics/SVG/1.1/DTD/svg11.dtd">
<svg version="1.1" id="Layer_1" xmlns="http://www.w3.org/2000/svg" xmlns:xlink="http://www.w3.org/1999/xlink" x="0px" y="0px"
	 width="157px" height="35px" viewBox="0 0 157 35" enable-background="new 0 0 157 35" xml:space="preserve">
<ellipse id="Oval" fill="#B7E2CB" cx="19.107" cy="17.706" rx="17.249" ry="17.032"/>
<path id="Shape" fill="#FFFFFF" d="M60.854,17.179c0.722,0.904,1.083,1.953,1.083,3.148c0,1.751-0.581,3.118-1.746,4.1
	c-1.166,0.981-2.838,1.473-5.011,1.473h-9.502V5.482h9.268c2.08,0,3.686,0.453,4.822,1.357c1.136,0.906,1.704,2.195,1.704,3.87
	c0,1.233-0.328,2.259-0.981,3.076c-0.653,0.82-1.512,1.353-2.571,1.602C59.155,15.675,60.131,16.272,60.854,17.179z M50.616,13.829
	h3.235c1.714,0,2.571-0.731,2.571-2.194c0-1.464-0.878-2.196-2.627-2.196h-3.178V13.829z M56.881,19.633
	c0-0.732-0.239-1.305-0.719-1.718c-0.483-0.413-1.166-0.622-2.053-0.622h-3.495v4.593h3.525
	C55.97,21.886,56.881,21.135,56.881,19.633z"/>
<path id="Shape_1_" fill="#FFFFFF" d="M72.854,10.42c0.886,0.558,1.542,1.318,1.964,2.281V9.784h4.91v16.116h-4.91v-2.916
	c-0.422,0.962-1.078,1.723-1.964,2.279c-0.885,0.56-1.945,0.84-3.177,0.84c-1.327,0-2.517-0.332-3.565-0.998
	c-1.048-0.662-1.876-1.622-2.483-2.871c-0.606-1.253-0.91-2.715-0.91-4.392c0-1.692,0.305-3.161,0.91-4.401
	c0.605-1.243,1.435-2.196,2.483-2.861c1.048-0.665,2.238-0.997,3.565-0.997C70.909,9.583,71.968,9.861,72.854,10.42z M68.712,14.955
	c-0.649,0.693-0.968,1.656-0.968,2.886c0,1.233,0.319,2.196,0.968,2.89c0.64,0.692,1.495,1.038,2.552,1.038
	c1.039,0,1.892-0.355,2.558-1.067c0.664-0.712,0.996-1.666,0.996-2.861c0-1.211-0.33-2.17-0.996-2.873
	c-0.666-0.702-1.519-1.054-2.558-1.054C70.206,13.915,69.352,14.26,68.712,14.955z"/>
<polygon id="Path" fill="#FFFFFF" points="85.879,9.784 89.746,19.663 93.357,9.784 98.816,9.784 88.765,33.582 83.336,33.582 
	87.118,25.292 80.362,9.784 "/>
<polygon id="Path_1_" fill="#FFFFFF" points="122.439,5.627 122.439,25.899 117.502,25.899 117.502,13.221 113.111,25.899 
	108.837,25.899 104.418,13.193 104.418,25.899 99.482,25.899 99.482,5.627 105.515,5.627 111.031,19.748 116.433,5.627 "/>
<path id="Shape_2_" fill="#FFFFFF" d="M134.167,10.42c0.884,0.558,1.538,1.318,1.962,2.281V9.784h4.909v16.116h-4.909v-2.916
	c-0.424,0.962-1.078,1.723-1.962,2.279c-0.886,0.56-1.947,0.84-3.181,0.84c-1.327,0-2.516-0.332-3.565-0.998
	c-1.048-0.662-1.876-1.622-2.482-2.871c-0.607-1.253-0.91-2.715-0.91-4.392c0-1.692,0.303-3.161,0.91-4.401
	c0.604-1.243,1.435-2.196,2.482-2.861c1.05-0.665,2.238-0.997,3.565-0.997C132.22,9.583,133.279,9.861,134.167,10.42z
	 M130.02,14.955c-0.643,0.693-0.967,1.656-0.967,2.886c0,1.233,0.322,2.196,0.967,2.89c0.645,0.692,1.5,1.038,2.559,1.038
	c1.041,0,1.886-0.355,2.556-1.067c0.663-0.712,0.995-1.666,0.995-2.861c0-1.211-0.332-2.17-0.995-2.873
	c-0.67-0.702-1.515-1.054-2.556-1.054C131.52,13.915,130.664,14.26,130.02,14.955z"/>
<path id="Shape_3_" fill="#FFFFFF" d="M143.808,3.388c0.538-0.49,1.254-0.737,2.14-0.737c0.884,0,1.599,0.247,2.137,0.737
	c0.536,0.493,0.811,1.112,0.811,1.863c0,0.731-0.274,1.343-0.811,1.833c-0.538,0.491-1.253,0.737-2.137,0.737
	c-0.886,0-1.602-0.246-2.14-0.737s-0.807-1.102-0.807-1.833C143.001,4.5,143.27,3.88,143.808,3.388z M148.402,9.784v16.116h-4.938
	V9.784H148.402z"/>
<polygon id="Path_2_" fill="#FFFFFF" points="155.766,4.53 155.766,25.899 150.828,25.899 150.828,4.53 "/>
<g id="Group_1_" transform="translate(7.000000, 11.000000)">
	<path id="Path_3_" fill="#27AE60" d="M2.962,0.069c-0.326,0-0.527,0.027-0.608,0.081c-0.08,0.054-0.097,0.115-0.041,0.182
		c0.055,0.069,0.186,0.183,0.405,0.346c0.105,0.08,0.189,0.147,0.243,0.201l9.144,6.961l9.146-6.918l0.205-0.203
		c0.215-0.161,0.356-0.277,0.424-0.344c0.066-0.067,0.061-0.134-0.022-0.203c-0.08-0.066-0.281-0.103-0.607-0.103H11.5H2.962
		L2.962,0.069z"/>
	<path id="Path_4_" fill="#27AE60" d="M1.748,1.688v10.278c0,0.297,0.122,0.601,0.363,0.911c0.243,0.31,0.487,0.467,0.729,0.467
		h18.533c0.242,0,0.485-0.156,0.728-0.467c0.246-0.31,0.367-0.614,0.367-0.911V1.688l-10.362,7.93L1.748,1.688z"/>
</g>
</svg>
