<?xml version="1.0" encoding="UTF-8"?>
<svg width="72px" height="63px" viewBox="0 0 72 63" version="1.1" xmlns="http://www.w3.org/2000/svg" xmlns:xlink="http://www.w3.org/1999/xlink">
    <!-- Generator: Sketch 61.1 (89650) - https://sketch.com -->
    <title>date-based</title>
    <desc>Created with Sketch.</desc>
    <g id="Page-1" stroke="none" stroke-width="1" fill="none" fill-rule="evenodd">
        <g id="step-1-copy" transform="translate(-981.000000, -634.000000)">
            <rect fill="#F4F6F8" x="0" y="0" width="1337" height="972"></rect>
            <rect id="Rectangle" stroke="#D8D8D8" fill="#FFFFFF" x="293.5" y="163.5" width="996" height="609" rx="5"></rect>
            <g id="date-based" transform="translate(981.000000, 634.000000)" fill-rule="nonzero">
                <path d="M61.9167417,6 L7.69446947,6 C6.67766769,6 6,6.81544488 6,8.03846154 C6,9.26147819 6.67766769,10.0770738 7.69446947,10.0770738 L61.9167417,10.0770738 C62.9333934,10.0770738 63.6112112,10.8925186 63.6112112,12.1155353 L63.6112112,52.8849167 C63.6112112,54.1079334 62.9330931,54.9233783 61.9167417,54.9233783 L7.69446947,54.9233783 C6.67766769,54.9233783 6,55.7388232 6,56.9618398 C6,58.1848565 6.67781781,59 7.69446947,59 L61.9167417,59 C64.7973548,59 67,56.3499548 67,52.8847661 L67,12.1153846 C67,8.65019588 64.797505,6 61.9167417,6 Z" id="Path" fill="#3B50B2"></path>
                <path d="M5.08324576,6 L59.3055347,6 C60.3221839,6 61,6.81544488 61,8.03846154 C61,9.26147819 60.3221839,10.0770738 59.3055347,10.0770738 L5.08324576,10.0770738 C4.06659661,10.0770738 3.38878046,10.8925186 3.38878046,12.1155353 L3.38878046,52.8849167 C3.38878046,54.1079334 4.06674673,54.9233783 5.08324576,54.9233783 L59.3055347,54.9233783 C60.3221839,54.9233783 61,55.7388232 61,56.9618398 C61,58.1848565 60.3220337,59 59.3055347,59 L5.08324576,59 C2.20263975,59 0,56.3499548 0,52.8847661 L0,12.1153846 C0,8.65019588 2.20263975,6 5.08324576,6 Z" id="Path" fill="#3B50B2"></path>
                <path d="M67,22.3810038 C67,23.2752294 66.3088593,24 65.456513,24 L2.54348699,24 C1.69083795,24 1,23.2752294 1,22.3810038 L1,21.6189962 C1,20.7249056 1.69083795,20 2.54348699,20 L65.456513,20 C66.3088593,20 67,20.7249056 67,21.6189962 L67,22.3810038 Z" id="Path" fill="#3B50B2"></path>
                <g id="Group" transform="translate(50.000000, 41.000000)">
                    <ellipse id="Oval" fill="#FFFFFF" cx="11.0079863" cy="10.9726897" rx="9.71405479" ry="9.69168276"></ellipse>
                    <path d="M11.0079863,21.9203448 C4.9640137,21.9203448 0.0467123288,17.0093379 0.0467123288,10.9728414 C0.0467123288,4.93634483 4.9640137,0.025337931 11.0079863,0.025337931 C17.0519589,0.025337931 21.9692603,4.93634483 21.9692603,10.9728414 C21.9692603,17.0093379 17.0519589,21.9203448 11.0079863,21.9203448 Z M11.0079863,2.53697931 C6.33946575,2.53697931 2.54130137,6.32128276 2.54130137,10.9728414 C2.54130137,15.6244 6.33946575,19.4087034 11.0079863,19.4087034 C15.6765068,19.4087034 19.4746712,15.6244 19.4746712,10.9728414 C19.4746712,6.32128276 15.6765068,2.53697931 11.0079863,2.53697931 Z" id="Shape" fill="#9DABED"></path>
                </g>
                <g id="Group" transform="translate(55.000000, 48.000000)" fill="#9DABED">
                    <path d="M9.31045946,0.513157895 L3.73598649,6.43421053 L1.7047027,4.27673684 C1.3587973,3.90915789 0.798094595,3.90915789 0.452189189,4.27673684 C0.106283784,4.64463158 0.106283784,5.23989474 0.452189189,5.60747368 L3.10972973,8.43015789 C3.28260811,8.61394737 3.5092973,8.70584211 3.73598649,8.70584211 C3.96267568,8.70584211 4.18936486,8.61394737 4.36239189,8.43015789 L10.5631216,1.84357895 C10.9093243,1.476 10.9093243,0.880421053 10.5631216,0.513157895 C10.2172162,0.145578947 9.65666216,0.145578947 9.31045946,0.513157895 Z" id="Path"></path>
                    <path d="M3.73598649,8.86373684 C3.45964865,8.86373684 3.19995946,8.74926316 3.00463514,8.54178947 L0.347094595,5.71910526 C-0.0558918919,5.29089474 -0.0560405405,4.59378947 0.346945946,4.16510526 C0.542418919,3.95763158 0.802256757,3.84315789 1.07844595,3.84315789 C1.35463514,3.84315789 1.61432432,3.95763158 1.8097973,4.16510526 L3.73598649,6.21094737 L9.20536486,0.401526316 C9.40083784,0.193894737 9.66067568,0.0795789474 9.93686486,0.0795789474 C10.2130541,0.0795789474 10.4727432,0.194052632 10.6682162,0.401526316 C10.8636892,0.608842105 10.9714595,0.884842105 10.9714595,1.17821053 C10.9714595,1.47157895 10.8636892,1.74757895 10.6682162,1.95521053 L4.46748649,8.54178947 C4.27216216,8.74926316 4.01217568,8.86373684 3.73598649,8.86373684 Z M1.07844595,4.15894737 C0.881635135,4.15894737 0.696567568,4.24042105 0.557283784,4.38836842 C0.270094595,4.69389474 0.270094595,5.19063158 0.557283784,5.49584211 L3.21482432,8.31852632 C3.35410811,8.46663158 3.53917568,8.54794737 3.73598649,8.54794737 C3.9327973,8.54794737 4.11786486,8.46647368 4.2572973,8.31852632 L10.458027,1.73194737 C10.5974595,1.58384211 10.6741622,1.38726316 10.6741622,1.17821053 C10.6741622,0.969315789 10.5973108,0.772736842 10.458027,0.624947368 C10.3187432,0.476842105 10.1336757,0.395368421 9.93686486,0.395368421 C9.74005405,0.395368421 9.55498649,0.477 9.41555405,0.624789474 L3.73598649,6.65747368 L1.59960811,4.38836842 C1.46032432,4.24026316 1.27525676,4.15894737 1.07844595,4.15894737 Z" id="Shape"></path>
                </g>
                <g id="Group" transform="translate(18.000000, 29.000000)" fill="#9DABED">
                    <path d="M14.6768119,17.8993846 L0.152391089,17.8993846 C0.318747525,16.4616923 0.824108911,15.1093846 1.66786139,13.8423077 C2.51161386,12.5753846 4.09460891,11.08 6.41623267,9.35615385 C7.83455941,8.29984615 8.7415396,7.49738462 9.13778713,6.94923077 C9.53403465,6.40107692 9.73215842,5.88107692 9.73215842,5.38830769 C9.73215842,4.85615385 9.53618317,4.40138462 9.14377228,4.024 C8.75166832,3.64676923 8.25827723,3.458 7.66390594,3.458 C7.04590099,3.458 6.54084653,3.65276923 6.14843564,4.04184615 C5.75633168,4.43107692 5.49298515,5.11830769 5.35808911,6.10307692 L0.508891089,5.70984615 C0.698881188,4.34369231 1.04755446,3.27723077 1.55460396,2.51061538 C2.06180693,1.74415385 2.77695545,1.15630769 3.7000495,0.747076923 C4.6229901,0.338153846 5.90074257,0.133538462 7.53315347,0.133538462 C9.23692574,0.133538462 10.5619455,0.328307692 11.5088267,0.717384615 C12.4557079,1.10661538 13.2004752,1.70446154 13.7434356,2.51061538 C14.2862426,3.31692308 14.5578762,4.22046154 14.5578762,5.22123077 C14.5578762,6.28584615 14.246802,7.30246154 13.6248069,8.27153846 C13.002505,9.24076923 11.8716188,10.3052308 10.2315347,11.4649231 C9.25672277,12.1401538 8.60480198,12.6129231 8.27638614,12.8827692 C7.94720297,13.1529231 7.56093069,13.5066154 7.11726238,13.9433846 L14.6766584,13.9433846 L14.6766584,17.8993846 L14.6768119,17.8993846 Z" id="Path"></path>
                    <path d="M30.9129851,17.8993846 L16.3885644,17.8993846 C16.5549208,16.4616923 17.0599752,15.1093846 17.9037277,13.8423077 C18.7477871,12.5753846 20.3304752,11.08 22.652099,9.35615385 C24.0704257,8.29984615 24.9777129,7.49738462 25.3739604,6.94923077 C25.7702079,6.40107692 25.9683317,5.88107692 25.9683317,5.38830769 C25.9683317,4.85615385 25.7720495,4.40138462 25.3799455,4.024 C24.9875347,3.64676923 24.4944505,3.458 23.9000792,3.458 C23.2820743,3.458 22.7770198,3.65276923 22.3846089,4.04184615 C21.992198,4.43107692 21.7288515,5.11830769 21.5942624,6.10307692 L16.7447574,5.70984615 C16.9350545,4.34369231 17.2837277,3.27723077 17.7907772,2.51061538 C18.2976733,1.74415385 19.0128218,1.15630769 19.9360693,0.747076923 C20.8593168,0.338153846 22.1367624,0.133538462 23.7694802,0.133538462 C25.4729455,0.133538462 26.7982723,0.328307692 27.7451535,0.717384615 C28.6920347,1.10661538 29.436802,1.70446154 29.9797624,2.51061538 C30.5222624,3.31692308 30.793896,4.22046154 30.793896,5.22123077 C30.793896,6.28584615 30.4828218,7.30246154 29.8608267,8.27153846 C29.2388317,9.24076923 28.1076386,10.3052308 26.4675545,11.4649231 C25.4927426,12.1401538 24.8411287,12.6129231 24.5124059,12.8827692 C24.1835297,13.1529231 23.7972574,13.5066154 23.3535891,13.9433846 L30.9129851,13.9433846 L30.9129851,17.8993846 L30.9129851,17.8993846 Z" id="Path"></path>
                </g>
                <ellipse id="Oval" fill="#3B50B2" cx="19" cy="14.5" rx="2" ry="2.5"></ellipse>
                <ellipse id="Oval" fill="#3B50B2" cx="49" cy="14.5" rx="2" ry="2.5"></ellipse>
                <path d="M21,14.1401116 C21,15.167235 20.3354957,16 19.5154591,16 L19.4845409,16 C18.6646613,16 18,15.167235 18,14.1401116 L18,1.85988841 C18,0.832765034 18.6646613,0 19.4845409,0 L19.5154591,0 C20.3354957,0 21,0.832765034 21,1.85988841 L21,14.1401116 Z" id="Path" fill="#3B50B2"></path>
                <path d="M51,14.1401116 C51,15.167235 50.3354957,16 49.5154591,16 L49.4845409,16 C48.6646613,16 48,15.167235 48,14.1401116 L48,1.85988841 C48,0.832765034 48.6646613,0 49.4845409,0 L49.5154591,0 C50.3354957,0 51,0.832765034 51,1.85988841 L51,14.1401116 Z" id="Path" fill="#3B50B2"></path>
            </g>
        </g>
    </g>
</svg>