<?xml version="1.0" encoding="UTF-8"?>
<svg width="70px" height="51px" viewBox="0 0 70 51" version="1.1" xmlns="http://www.w3.org/2000/svg" xmlns:xlink="http://www.w3.org/1999/xlink">
    <!-- Generator: Sketch 61.1 (89650) - https://sketch.com -->
    <title>followup</title>
    <desc>Created with Sketch.</desc>
    <g id="Page-1" stroke="none" stroke-width="1" fill="none" fill-rule="evenodd">
        <g id="step-1-copy" transform="translate(-664.000000, -466.000000)">
            <rect fill="#F4F6F8" x="0" y="0" width="1337" height="972"></rect>
            <rect id="Rectangle" stroke="#D8D8D8" fill="#FFFFFF" x="293.5" y="163.5" width="996" height="609" rx="5"></rect>
            <rect id="Rectangle" stroke="#D8D8D8" fill="#FFFFFF" x="644.5" y="435.5" width="291" height="140" rx="3"></rect>
            <g id="mail-outline-02" transform="translate(664.000000, 466.000000)" fill-rule="nonzero">
                <path d="M63.0000308,6.07773852 L9.6666564,6.07773852 C8.66658865,6.07773852 8,6.75471163 8,7.77004621 C8,8.78538079 8.66658865,9.46247899 9.6666564,9.46247899 L63.0000308,9.46247899 C64.0000986,9.46247899 64.6666872,10.1394521 64.6666872,11.1547867 L64.6666872,45.0010656 C64.6666872,46.0164002 63.9998522,46.6933733 63.0000308,46.6933733 L9.6666564,46.6933733 C8.66658865,46.6933733 8,47.3703464 8,48.385681 C8,49.4010156 8.66671184,50.0777385 9.6666564,50.0777385 L63.0000308,50.0777385 C65.8334329,50.0777385 68,47.877701 68,45.0009405 L68,11.1547867 C68,8.27790113 65.8334329,6.07773852 63.0000308,6.07773852 Z" id="Path" fill="#3B50B2"></path>
                <path d="M0,11.1547722 L0,45.000955 C0,47.8777072 2.16656709,50.0777385 4.9999692,50.0777385 L58.3333436,50.0777385 C59.3332882,50.0777385 60,49.4010175 60,48.3856858 C60,47.3703541 59.3334114,46.6933829 58.3333436,46.6933829 L4.9999692,46.6933829 C4.00014783,46.6933829 3.3333128,46.0164117 3.3333128,45.00108 L3.3333128,11.1547722 C3.3333128,10.1394406 3.99990145,9.46246937 4.9999692,9.46246937 L58.3333436,9.46246937 C59.3334114,9.46246937 60,8.78537309 60,7.7700414 C60,6.7547097 59.3334114,6.07773852 58.3333436,6.07773852 L4.9999692,6.07773852 C2.16656709,6.07773852 0,8.27801996 0,11.1547722 Z" id="Path" fill="#3B50B2"></path>
                <path d="M57.7079568,16.7458673 C57.2057712,16.0855591 56.0342521,15.920482 55.3646712,16.4157132 L37.6220155,29.786223 C35.7807919,31.1067175 33.2699873,31.1067175 31.4287637,29.786223 L13.686108,16.4157132 C13.0165271,15.920482 11.8448843,15.920482 11.3428224,16.7458673 C10.840513,17.4061755 10.840513,18.5615929 11.6774891,19.0567021 L29.58754,32.4270899 C31.094097,33.5826293 32.9353206,34.0777385 34.6091491,34.0777385 C36.2828538,34.0777385 38.2915964,33.5825073 39.6306344,32.4270899 L57.3734138,19.0567021 C58.042871,18.5615929 58.2101425,17.4061755 57.7079568,16.7458673 Z" id="Path" fill="#9DABED"></path>
                <g id="Group" transform="translate(54.000000, 0.000000)">
                    <ellipse id="Oval" fill="#FFFFFF" cx="7.95777444" cy="7.97248485" rx="7.02676692" ry="7.01539394"></ellipse>
                    <path d="M7.95777444,15.8969697 C3.58568421,15.8969697 0.0287518797,12.3420606 0.0287518797,7.97248485 C0.0287518797,3.60290909 3.58568421,0.048 7.95777444,0.048 C12.3298647,0.048 15.886797,3.60290909 15.886797,7.97248485 C15.886797,12.3420606 12.3297444,15.8969697 7.95777444,15.8969697 Z M7.95777444,1.86618182 C4.58069173,1.86618182 1.83326316,4.60545455 1.83326316,7.97248485 C1.83326316,11.3395152 4.58069173,14.0787879 7.95777444,14.0787879 C11.3348571,14.0787879 14.0822857,11.3395152 14.0822857,7.97248485 C14.0822857,4.60545455 11.3348571,1.86618182 7.95777444,1.86618182 Z" id="Shape" fill="#9DABED"></path>
                </g>
                <path d="M62.1732257,4.1120919 L59.1343779,6.63994004 C59.0476864,6.71205674 59,6.80828016 59,6.91080997 C59,7.0134415 59.0476864,7.10966491 59.1343779,7.18178162 L59.4104701,7.4112531 C59.4970392,7.48336981 59.6127094,7.5231408 59.7359605,7.5231408 C59.8593338,7.5231408 59.9787944,7.48336981 60.0654859,7.4112531 L61.8419885,5.93657331 L61.8419885,10.6218196 C61.8419885,10.8329822 62.0408042,11 62.294765,11 L62.6849377,11 C62.9388985,11 63.1577669,10.8329822 63.1577669,10.6218196 L63.1577669,5.91979016 L64.9441737,7.41115139 C65.0309874,7.48316638 65.1434785,7.52303908 65.2668518,7.52303908 C65.3901029,7.52303908 65.5041835,7.48326809 65.5908749,7.41115139 L65.8658667,7.1816799 C65.9526804,7.1095632 66,7.01333978 66,6.91070825 C66,6.80817844 65.952069,6.71195502 65.8652553,6.63983832 L62.826652,4.11188847 C62.7394714,4.03956833 62.6234345,3.99979734 62.4999389,4 C62.376321,4 62.2600395,4.03977177 62.1732257,4.1120919 Z" id="Path" fill="#9DABED"></path>
            </g>
        </g>
    </g>
</svg>