<?xml version="1.0" encoding="UTF-8"?>
<svg width="76px" height="45px" viewBox="0 0 76 45" version="1.1" xmlns="http://www.w3.org/2000/svg" xmlns:xlink="http://www.w3.org/1999/xlink">
    <!-- Generator: Sketch 61.1 (89650) - https://sketch.com -->
    <title>standard</title>
    <desc>Created with Sketch.</desc>
    <g id="Page-1" stroke="none" stroke-width="1" fill="none" fill-rule="evenodd">
        <g id="step-1-copy" transform="translate(-343.000000, -471.000000)">
            <rect fill="#F4F6F8" x="0" y="0" width="1337" height="972"></rect>
            <rect id="Rectangle" stroke="#D8D8D8" fill="#FFFFFF" x="293.5" y="163.5" width="996" height="609" rx="5"></rect>
            <rect id="Rectangle" stroke="#43467F" stroke-width="2" fill="#F5F6F8" x="327" y="436" width="290" height="139" rx="3"></rect>
            <g id="standard" transform="translate(343.000000, 471.000000)" fill-rule="nonzero">
                <path d="M25.7301205,29.3877551 L11.8120482,29.3877551 C10.7681156,29.3877551 10.0722892,30.1225304 10.0722892,31.2245577 C10.0722892,32.3264492 10.7683728,33.0612245 11.8120482,33.0612245 L25.7301205,33.0612245 C26.7740531,33.0612245 27.4698795,32.3264492 27.4698795,31.2245577 C27.4698795,30.1225304 26.7740531,29.3877551 25.7301205,29.3877551 Z" id="Path" fill="#9DABED"></path>
                <path d="M20.2363889,21.122449 L6.31795655,21.122449 C5.27414485,21.122449 4.57831325,21.8572243 4.57831325,22.9592516 C4.57831325,24.061143 5.27427345,24.7959184 6.31795655,24.7959184 L20.2362603,24.7959184 C21.280072,24.7959184 21.9759036,24.061143 21.9759036,22.9592516 C21.9759036,21.8572243 21.2802006,21.122449 20.2363889,21.122449 Z" id="Path" fill="#9DABED"></path>
                <path d="M15.6580757,11.9387755 L1.7397719,11.9387755 C0.695960197,11.9387755 0,12.6734151 0,13.7754423 C0,14.8774696 0.695960197,15.6122449 1.7396433,15.6122449 L15.6579471,15.6122449 C16.7017588,15.6122449 17.3975904,14.8774696 17.3975904,13.7754423 C17.3975904,12.6734151 16.7018874,11.9387755 15.6580757,11.9387755 Z" id="Path" fill="#9DABED"></path>
                <path d="M69.2888106,7.14442369 C68.7702759,6.43695058 67.5606171,6.2600823 66.8692376,6.79068714 L48.5489563,21.1162334 C46.6477902,22.5310489 44.0552445,22.5310489 42.1540785,21.1162334 L23.8337972,6.79068714 C23.1424176,6.2600823 21.9326311,6.2600823 21.4142242,7.14442369 C20.8955618,7.85189681 20.8955618,9.08984404 21.7597862,9.62031815 L40.2529124,23.9457337 C41.8085164,25.1838116 43.7096825,25.7142857 45.4380037,25.7142857 C47.1661971,25.7142857 49.2403359,25.1836809 50.6229673,23.9457337 L68.9433763,9.62031815 C69.6346281,9.08984404 69.8073453,7.85189681 69.2888106,7.14442369 Z" id="Path" fill="#9DABED"></path>
                <path d="M70.8112769,0 L15.4645141,0 C14.4266928,0 13.7349398,0.692356896 13.7349398,1.73076431 C13.7349398,2.76917172 14.4266928,3.46165655 15.4645141,3.46165655 L70.8112769,3.46165655 C71.8490983,3.46165655 72.5408513,4.15401345 72.5408513,5.19242086 L72.5408513,39.8079629 C72.5408513,40.8463703 71.8488426,41.5385993 70.8112769,41.5385993 L15.4645141,41.5385993 C14.4266928,41.5385993 13.7349398,42.2309562 13.7349398,43.2693636 C13.7349398,44.307771 14.4268206,45 15.4645141,45 L70.8112769,45 C73.7516428,45 76,42.749968 76,39.8077071 L76,5.19242086 C76,2.25015991 73.7516428,0 70.8112769,0 Z" id="Path" fill="#3B50B2"></path>
                <path d="M69.0754358,35.6440977 L58.7740684,25.3125286 C58.0872683,24.6237149 57.0573219,24.6237149 56.3705218,25.3125286 C55.6837217,26.0013423 55.6837217,27.0344356 56.3705218,27.7232493 L66.6717623,38.054691 C67.0151624,38.3990979 67.5302625,38.5714286 67.8735356,38.5714286 C68.2169357,38.5714286 68.7320358,38.3990979 69.0755627,38.054691 C69.7619822,37.3660046 69.7619822,36.3329113 69.0754358,35.6440977 Z" id="Path" fill="#9DABED"></path>
            </g>
        </g>
    </g>
</svg>